<?xml version="1.0" encoding="UTF-8"?>
<svg width="33px" height="33px" viewBox="0 0 33 33" version="1.1" xmlns="http://www.w3.org/2000/svg" xmlns:xlink="http://www.w3.org/1999/xlink">
    <!-- Generator: Sketch 50.2 (55047) - http://www.bohemiancoding.com/sketch -->
    <title>video</title>
    <desc>Created with Sketch.</desc>
    <defs></defs>
    <g id="Page-1" stroke="none" stroke-width="1" fill="none" fill-rule="evenodd">
        <path d="M29.3062034,6.72872653 C30.0794837,6.72872653 30.750408,7.04171244 31.3189965,7.66769366 C31.887585,8.29367488 32.171875,9.05736052 32.171875,9.95877347 L32.171875,29.1888204 C32.171875,30.0401549 31.887585,30.7788016 31.3189965,31.4047829 C30.750408,32.0307641 30.0794837,32.34375 29.3062034,32.34375 L3.10577692,32.34375 C2.2870095,32.34375 1.59334195,32.0307641 1.02475346,31.4047829 C0.456164979,30.7788016 0.171875,30.0401549 0.171875,29.1888204 L0.171875,9.95877347 C0.171875,9.05736052 0.456164979,8.29367488 1.02475346,7.66769366 C1.59334195,7.04171244 2.2870095,6.72872653 3.10577692,6.72872653 L14.1590818,6.72872653 L9.31473214,1.47051056 L10.3381863,0.34375 L16.2059901,6.72872653 L22.0055637,0.34375 L23.0290179,1.47051056 L18.2528985,6.72872653 L29.3062034,6.72872653 Z M29.3062034,29.1888204 L29.3062034,9.95877347 L3.10577692,9.95877347 L3.10577692,29.1888204 L29.3062034,29.1888204 Z M11.8392524,13.1137031 L22.0055637,19.5737969 L11.8392524,25.9587735 L11.8392524,13.1137031 Z" id="video" fill="#484848"></path>
    </g>
</svg>